<svg width="331" height="23" viewBox="0 0 331 23" fill="none" xmlns="http://www.w3.org/2000/svg">
<path d="M9.46289 12.1699H10.9277C10.9277 13.1921 10.6348 13.9603 10.0488 14.4746C9.4694 14.9824 8.67839 15.2363 7.67578 15.2363C6.97917 15.2363 6.37695 15.0768 5.86914 14.7578C5.36784 14.4388 4.97721 13.9961 4.69727 13.4297C4.42383 12.8633 4.28711 12.2057 4.28711 11.457V10.3145C4.28711 9.56576 4.42383 8.9082 4.69727 8.3418C4.97721 7.77539 5.36784 7.33268 5.86914 7.01367C6.37695 6.69466 6.97917 6.53516 7.67578 6.53516C8.67839 6.53516 9.47266 6.79232 10.0586 7.30664C10.6445 7.81445 10.9375 8.57943 10.9375 9.60156H9.47266C9.47266 8.96354 9.31966 8.50781 9.01367 8.23438C8.71419 7.95443 8.26823 7.81445 7.67578 7.81445C7.2526 7.81445 6.89453 7.92188 6.60156 8.13672C6.3151 8.34505 6.09701 8.63802 5.94727 9.01562C5.80404 9.39323 5.73242 9.82292 5.73242 10.3047V11.457C5.73242 11.9453 5.80404 12.3783 5.94727 12.7559C6.09701 13.1335 6.3151 13.4297 6.60156 13.6445C6.89453 13.8529 7.2526 13.957 7.67578 13.957C8.26823 13.957 8.71419 13.8203 9.01367 13.5469C9.31315 13.2734 9.46289 12.8145 9.46289 12.1699ZM2.02148 10.8809C2.02148 11.7467 2.17122 12.554 2.4707 13.3027C2.77018 14.0449 3.18359 14.696 3.71094 15.2559C4.24479 15.8092 4.86003 16.2422 5.55664 16.5547C6.25977 16.8607 7.01172 17.0137 7.8125 17.0137C8.60677 17.0137 9.35221 16.8607 10.0488 16.5547C10.7454 16.2422 11.3574 15.8092 11.8848 15.2559C12.4186 14.696 12.8353 14.0449 13.1348 13.3027C13.4342 12.554 13.584 11.7467 13.584 10.8809C13.584 10.015 13.4342 9.21094 13.1348 8.46875C12.8353 7.72656 12.4186 7.07878 11.8848 6.52539C11.3574 5.97201 10.7454 5.54232 10.0488 5.23633C9.35221 4.92383 8.60677 4.76758 7.8125 4.76758C7.01172 4.76758 6.25977 4.92383 5.55664 5.23633C4.86003 5.54232 4.24479 5.97201 3.71094 6.52539C3.18359 7.07878 2.77018 7.72656 2.4707 8.46875C2.17122 9.21094 2.02148 10.015 2.02148 10.8809ZM0.878906 10.8809C0.878906 9.8457 1.05794 8.88542 1.41602 8C1.77409 7.11458 2.27214 6.3431 2.91016 5.68555C3.54818 5.02148 4.28385 4.50716 5.11719 4.14258C5.95703 3.77148 6.85547 3.58594 7.8125 3.58594C8.76953 3.58594 9.66471 3.77148 10.498 4.14258C11.3379 4.50716 12.0736 5.02148 12.7051 5.68555C13.3431 6.3431 13.8411 7.11458 14.1992 8C14.5573 8.88542 14.7363 9.8457 14.7363 10.8809C14.7363 11.916 14.5573 12.8763 14.1992 13.7617C13.8411 14.6471 13.3431 15.4251 12.7051 16.0957C12.0736 16.7598 11.3379 17.2773 10.498 17.6484C9.66471 18.0195 8.76953 18.2051 7.8125 18.2051C6.85547 18.2051 5.95703 18.0195 5.11719 17.6484C4.28385 17.2773 3.54818 16.7598 2.91016 16.0957C2.27214 15.4251 1.77409 14.6471 1.41602 13.7617C1.05794 12.8763 0.878906 11.916 0.878906 10.8809ZM30.5469 13.3711H32.9883C32.9102 14.3021 32.6497 15.1322 32.207 15.8613C31.7643 16.584 31.1426 17.1536 30.3418 17.5703C29.541 17.987 28.5677 18.1953 27.4219 18.1953C26.543 18.1953 25.752 18.0391 25.0488 17.7266C24.3457 17.4076 23.7435 16.9583 23.2422 16.3789C22.7409 15.793 22.3568 15.0866 22.0898 14.2598C21.8294 13.4329 21.6992 12.5085 21.6992 11.4863V10.3047C21.6992 9.28255 21.8327 8.35807 22.0996 7.53125C22.373 6.70443 22.7637 5.99805 23.2715 5.41211C23.7793 4.81966 24.388 4.36719 25.0977 4.05469C25.8138 3.74219 26.6178 3.58594 27.5098 3.58594C28.6426 3.58594 29.5996 3.79427 30.3809 4.21094C31.1621 4.6276 31.7676 5.20378 32.1973 5.93945C32.6335 6.67513 32.9004 7.51823 32.998 8.46875H30.5566C30.4915 7.85677 30.3483 7.33268 30.127 6.89648C29.9121 6.46029 29.5931 6.12826 29.1699 5.90039C28.7467 5.66602 28.1934 5.54883 27.5098 5.54883C26.9499 5.54883 26.4616 5.65299 26.0449 5.86133C25.6283 6.06966 25.2799 6.37565 25 6.7793C24.7201 7.18294 24.5085 7.68099 24.3652 8.27344C24.2285 8.85938 24.1602 9.52995 24.1602 10.2852V11.4863C24.1602 12.2025 24.222 12.8535 24.3457 13.4395C24.4759 14.0189 24.6712 14.5169 24.9316 14.9336C25.1986 15.3503 25.5371 15.6725 25.9473 15.9004C26.3574 16.1283 26.849 16.2422 27.4219 16.2422C28.1185 16.2422 28.6816 16.1315 29.1113 15.9102C29.5475 15.6888 29.8763 15.3665 30.0977 14.9434C30.3255 14.5137 30.4753 13.9896 30.5469 13.3711ZM34.5312 12.834V12.6094C34.5312 11.8477 34.6419 11.1413 34.8633 10.4902C35.0846 9.83268 35.4036 9.26302 35.8203 8.78125C36.2435 8.29297 36.7578 7.91536 37.3633 7.64844C37.9753 7.375 38.6654 7.23828 39.4336 7.23828C40.2083 7.23828 40.8984 7.375 41.5039 7.64844C42.1159 7.91536 42.6335 8.29297 43.0566 8.78125C43.4798 9.26302 43.8021 9.83268 44.0234 10.4902C44.2448 11.1413 44.3555 11.8477 44.3555 12.6094V12.834C44.3555 13.5957 44.2448 14.3021 44.0234 14.9531C43.8021 15.6042 43.4798 16.1738 43.0566 16.6621C42.6335 17.1439 42.1191 17.5215 41.5137 17.7949C40.9082 18.0618 40.2214 18.1953 39.4531 18.1953C38.6784 18.1953 37.985 18.0618 37.373 17.7949C36.7676 17.5215 36.2533 17.1439 35.8301 16.6621C35.4069 16.1738 35.0846 15.6042 34.8633 14.9531C34.6419 14.3021 34.5312 13.5957 34.5312 12.834ZM36.8848 12.6094V12.834C36.8848 13.3092 36.9336 13.7585 37.0312 14.1816C37.1289 14.6048 37.2819 14.9759 37.4902 15.2949C37.6986 15.6139 37.9655 15.8646 38.291 16.0469C38.6165 16.2292 39.0039 16.3203 39.4531 16.3203C39.8893 16.3203 40.2669 16.2292 40.5859 16.0469C40.9115 15.8646 41.1784 15.6139 41.3867 15.2949C41.5951 14.9759 41.748 14.6048 41.8457 14.1816C41.9499 13.7585 42.002 13.3092 42.002 12.834V12.6094C42.002 12.1406 41.9499 11.6979 41.8457 11.2812C41.748 10.8581 41.5918 10.4837 41.377 10.1582C41.1686 9.83268 40.9017 9.57878 40.5762 9.39648C40.2572 9.20768 39.8763 9.11328 39.4336 9.11328C38.9909 9.11328 38.6068 9.20768 38.2812 9.39648C37.9622 9.57878 37.6986 9.83268 37.4902 10.1582C37.2819 10.4837 37.1289 10.8581 37.0312 11.2812C36.9336 11.6979 36.8848 12.1406 36.8848 12.6094ZM48.6914 9.46484V22.0625H46.3379V7.43359H48.5059L48.6914 9.46484ZM55.5762 12.6191V12.8242C55.5762 13.5924 55.485 14.3053 55.3027 14.9629C55.127 15.6139 54.8633 16.1836 54.5117 16.6719C54.1667 17.1536 53.7402 17.528 53.2324 17.7949C52.7246 18.0618 52.1387 18.1953 51.4746 18.1953C50.8171 18.1953 50.2409 18.0749 49.7461 17.834C49.2578 17.5866 48.8444 17.2383 48.5059 16.7891C48.1673 16.3398 47.8939 15.8125 47.6855 15.207C47.4837 14.5951 47.3405 13.9245 47.2559 13.1953V12.4043C47.3405 11.6296 47.4837 10.9264 47.6855 10.2949C47.8939 9.66341 48.1673 9.11979 48.5059 8.66406C48.8444 8.20833 49.2578 7.85677 49.7461 7.60938C50.2344 7.36198 50.804 7.23828 51.4551 7.23828C52.1191 7.23828 52.7083 7.36849 53.2227 7.62891C53.737 7.88281 54.1699 8.2474 54.5215 8.72266C54.873 9.19141 55.1367 9.75781 55.3125 10.4219C55.4883 11.0794 55.5762 11.8118 55.5762 12.6191ZM53.2227 12.8242V12.6191C53.2227 12.1309 53.1771 11.6784 53.0859 11.2617C52.9948 10.8385 52.8516 10.4674 52.6562 10.1484C52.4609 9.82943 52.2103 9.58203 51.9043 9.40625C51.6048 9.22396 51.2435 9.13281 50.8203 9.13281C50.4036 9.13281 50.0456 9.20443 49.7461 9.34766C49.4466 9.48438 49.196 9.67643 48.9941 9.92383C48.7923 10.1712 48.6361 10.4609 48.5254 10.793C48.4147 11.1185 48.3366 11.4733 48.291 11.8574V13.752C48.3691 14.2207 48.5026 14.6504 48.6914 15.041C48.8802 15.4316 49.1471 15.7441 49.4922 15.9785C49.8438 16.2064 50.293 16.3203 50.8398 16.3203C51.263 16.3203 51.6243 16.2292 51.9238 16.0469C52.2233 15.8646 52.4674 15.6139 52.6562 15.2949C52.8516 14.9694 52.9948 14.5951 53.0859 14.1719C53.1771 13.7487 53.2227 13.2995 53.2227 12.8242ZM60.5273 16.8477L63.3984 7.43359H65.918L61.6797 19.6113C61.582 19.8717 61.4551 20.1549 61.2988 20.4609C61.1426 20.7669 60.9375 21.0566 60.6836 21.3301C60.4362 21.61 60.127 21.8346 59.7559 22.0039C59.3848 22.1797 58.9355 22.2676 58.4082 22.2676C58.1999 22.2676 57.998 22.248 57.8027 22.209C57.6139 22.1764 57.4349 22.1406 57.2656 22.1016L57.2559 20.3047C57.321 20.3112 57.3991 20.3177 57.4902 20.3242C57.5879 20.3307 57.666 20.334 57.7246 20.334C58.1152 20.334 58.4408 20.2852 58.7012 20.1875C58.9616 20.0964 59.1732 19.9466 59.3359 19.7383C59.5052 19.5299 59.6484 19.25 59.7656 18.8984L60.5273 16.8477ZM58.9062 7.43359L61.416 15.3438L61.8359 17.8242L60.2051 18.2441L56.3672 7.43359H58.9062ZM69.6289 9.44531V18H67.2754V7.43359H69.5215L69.6289 9.44531ZM72.8613 7.36523L72.8418 9.55273C72.6986 9.52669 72.5423 9.50716 72.373 9.49414C72.2103 9.48112 72.0475 9.47461 71.8848 9.47461C71.4811 9.47461 71.1263 9.5332 70.8203 9.65039C70.5143 9.76107 70.2572 9.92383 70.0488 10.1387C69.847 10.347 69.6908 10.6009 69.5801 10.9004C69.4694 11.1999 69.4043 11.5352 69.3848 11.9062L68.8477 11.9453C68.8477 11.2812 68.9128 10.666 69.043 10.0996C69.1732 9.5332 69.3685 9.03516 69.6289 8.60547C69.8958 8.17578 70.2279 7.84049 70.625 7.59961C71.0286 7.35872 71.4941 7.23828 72.0215 7.23828C72.1647 7.23828 72.3177 7.2513 72.4805 7.27734C72.6497 7.30339 72.7767 7.33268 72.8613 7.36523ZM76.8555 7.43359V18H74.4922V7.43359H76.8555ZM74.3359 4.66016C74.3359 4.30208 74.4531 4.00586 74.6875 3.77148C74.9284 3.5306 75.2604 3.41016 75.6836 3.41016C76.1003 3.41016 76.429 3.5306 76.6699 3.77148C76.9108 4.00586 77.0312 4.30208 77.0312 4.66016C77.0312 5.01172 76.9108 5.30469 76.6699 5.53906C76.429 5.77344 76.1003 5.89062 75.6836 5.89062C75.2604 5.89062 74.9284 5.77344 74.6875 5.53906C74.4531 5.30469 74.3359 5.01172 74.3359 4.66016ZM86.2012 7.43359H88.3398V17.707C88.3398 18.6576 88.138 19.4648 87.7344 20.1289C87.3307 20.793 86.7676 21.2975 86.0449 21.6426C85.3223 21.9941 84.4857 22.1699 83.5352 22.1699C83.1315 22.1699 82.6823 22.1113 82.1875 21.9941C81.6992 21.877 81.224 21.6882 80.7617 21.4277C80.306 21.1738 79.9251 20.8385 79.6191 20.4219L80.7227 19.0352C81.1003 19.4844 81.5169 19.8132 81.9727 20.0215C82.4284 20.2298 82.9069 20.334 83.4082 20.334C83.9486 20.334 84.4076 20.2331 84.7852 20.0312C85.1693 19.8359 85.4655 19.5462 85.6738 19.1621C85.8822 18.778 85.9863 18.3092 85.9863 17.7559V9.82617L86.2012 7.43359ZM79.0234 12.834V12.6289C79.0234 11.8281 79.1211 11.099 79.3164 10.4414C79.5117 9.77734 79.7917 9.20768 80.1562 8.73242C80.5208 8.25065 80.9635 7.88281 81.4844 7.62891C82.0052 7.36849 82.5944 7.23828 83.252 7.23828C83.9355 7.23828 84.5182 7.36198 85 7.60938C85.4883 7.85677 85.8952 8.21159 86.2207 8.67383C86.5462 9.12956 86.8001 9.67643 86.9824 10.3145C87.1712 10.946 87.3112 11.6491 87.4023 12.4238V13.0781C87.3177 13.8333 87.1745 14.5234 86.9727 15.1484C86.7708 15.7734 86.5039 16.3138 86.1719 16.7695C85.8398 17.2253 85.4297 17.5768 84.9414 17.8242C84.4596 18.0716 83.89 18.1953 83.2324 18.1953C82.5879 18.1953 82.0052 18.0618 81.4844 17.7949C80.9701 17.528 80.5273 17.1536 80.1562 16.6719C79.7917 16.1901 79.5117 15.6237 79.3164 14.9727C79.1211 14.3151 79.0234 13.6022 79.0234 12.834ZM81.377 12.6289V12.834C81.377 13.3158 81.4225 13.765 81.5137 14.1816C81.6113 14.5983 81.7578 14.9661 81.9531 15.2852C82.1549 15.5977 82.4089 15.8451 82.7148 16.0273C83.0273 16.2031 83.3952 16.291 83.8184 16.291C84.3717 16.291 84.8242 16.1738 85.1758 15.9395C85.5339 15.7051 85.8073 15.3893 85.9961 14.9922C86.1914 14.5885 86.3281 14.1393 86.4062 13.6445V11.877C86.3672 11.4928 86.2858 11.1348 86.1621 10.8027C86.0449 10.4707 85.8854 10.181 85.6836 9.93359C85.4818 9.67969 85.2279 9.48438 84.9219 9.34766C84.6159 9.20443 84.2546 9.13281 83.8379 9.13281C83.4147 9.13281 83.0469 9.22396 82.7344 9.40625C82.4219 9.58854 82.1647 9.83919 81.9629 10.1582C81.7676 10.4772 81.6211 10.8483 81.5234 11.2715C81.4258 11.6947 81.377 12.1471 81.377 12.6289ZM93.1055 3V18H90.7617V3H93.1055ZM92.6953 12.3262L91.9336 12.3164C91.9401 11.5872 92.041 10.9134 92.2363 10.2949C92.4382 9.67643 92.7181 9.13932 93.0762 8.68359C93.4408 8.22135 93.877 7.86654 94.3848 7.61914C94.8926 7.36523 95.4557 7.23828 96.0742 7.23828C96.5951 7.23828 97.0638 7.3099 97.4805 7.45312C97.9036 7.59635 98.2682 7.82747 98.5742 8.14648C98.8802 8.45898 99.1113 8.86914 99.2676 9.37695C99.4303 9.87826 99.5117 10.4902 99.5117 11.2129V18H97.1484V11.1934C97.1484 10.6855 97.0736 10.2819 96.9238 9.98242C96.7806 9.68294 96.569 9.4681 96.2891 9.33789C96.0091 9.20117 95.6673 9.13281 95.2637 9.13281C94.8405 9.13281 94.4661 9.21745 94.1406 9.38672C93.8216 9.55599 93.5547 9.78711 93.3398 10.0801C93.125 10.373 92.9622 10.7116 92.8516 11.0957C92.7474 11.4798 92.6953 11.89 92.6953 12.3262ZM106.738 7.43359V9.15234H100.781V7.43359H106.738ZM102.5 4.8457H104.854V15.0801C104.854 15.4056 104.899 15.6562 104.99 15.832C105.088 16.0013 105.221 16.1152 105.391 16.1738C105.56 16.2324 105.758 16.2617 105.986 16.2617C106.149 16.2617 106.305 16.252 106.455 16.2324C106.605 16.2129 106.725 16.1934 106.816 16.1738L106.826 17.9707C106.631 18.0293 106.403 18.0814 106.143 18.127C105.889 18.1725 105.596 18.1953 105.264 18.1953C104.723 18.1953 104.245 18.1009 103.828 17.9121C103.411 17.7168 103.086 17.401 102.852 16.9648C102.617 16.5286 102.5 15.9492 102.5 15.2266V4.8457ZM122.93 16.125V18H113.398V16.3887L118.027 11.3398C118.535 10.7669 118.936 10.2721 119.229 9.85547C119.521 9.4388 119.727 9.06445 119.844 8.73242C119.967 8.39388 120.029 8.0651 120.029 7.74609C120.029 7.29688 119.945 6.90299 119.775 6.56445C119.613 6.2194 119.372 5.94922 119.053 5.75391C118.734 5.55208 118.346 5.45117 117.891 5.45117C117.363 5.45117 116.921 5.5651 116.562 5.79297C116.204 6.02083 115.934 6.33659 115.752 6.74023C115.57 7.13737 115.479 7.5931 115.479 8.10742H113.125C113.125 7.2806 113.314 6.52539 113.691 5.8418C114.069 5.15169 114.616 4.60482 115.332 4.20117C116.048 3.79102 116.911 3.58594 117.92 3.58594C118.87 3.58594 119.678 3.74544 120.342 4.06445C121.006 4.38346 121.51 4.83594 121.855 5.42188C122.207 6.00781 122.383 6.70117 122.383 7.50195C122.383 7.94466 122.311 8.38411 122.168 8.82031C122.025 9.25651 121.82 9.69271 121.553 10.1289C121.292 10.5586 120.983 10.9915 120.625 11.4277C120.267 11.8574 119.873 12.2936 119.443 12.7363L116.367 16.125H122.93ZM134.033 9.69922V12.0234C134.033 13.1367 133.923 14.0872 133.701 14.875C133.486 15.6562 133.174 16.291 132.764 16.7793C132.354 17.2676 131.862 17.6257 131.289 17.8535C130.723 18.0814 130.088 18.1953 129.385 18.1953C128.825 18.1953 128.304 18.1237 127.822 17.9805C127.347 17.8372 126.917 17.6126 126.533 17.3066C126.149 17.0007 125.82 16.6068 125.547 16.125C125.28 15.6367 125.072 15.054 124.922 14.377C124.779 13.6999 124.707 12.9154 124.707 12.0234V9.69922C124.707 8.57943 124.818 7.63542 125.039 6.86719C125.26 6.09245 125.576 5.46419 125.986 4.98242C126.396 4.49414 126.885 4.13932 127.451 3.91797C128.024 3.69661 128.662 3.58594 129.365 3.58594C129.932 3.58594 130.452 3.65755 130.928 3.80078C131.41 3.9375 131.839 4.1556 132.217 4.45508C132.601 4.75456 132.926 5.14518 133.193 5.62695C133.467 6.10221 133.675 6.67839 133.818 7.35547C133.962 8.02604 134.033 8.80729 134.033 9.69922ZM131.68 12.3555V9.34766C131.68 8.78125 131.647 8.2832 131.582 7.85352C131.517 7.41732 131.419 7.04948 131.289 6.75C131.165 6.44401 131.009 6.19661 130.82 6.00781C130.632 5.8125 130.417 5.67253 130.176 5.58789C129.935 5.49674 129.665 5.45117 129.365 5.45117C129.001 5.45117 128.675 5.52279 128.389 5.66602C128.102 5.80273 127.861 6.02409 127.666 6.33008C127.471 6.63607 127.321 7.03971 127.217 7.54102C127.119 8.03581 127.07 8.63802 127.07 9.34766V12.3555C127.07 12.9284 127.103 13.4329 127.168 13.8691C127.233 14.3053 127.331 14.6797 127.461 14.9922C127.591 15.2982 127.747 15.5521 127.93 15.7539C128.118 15.9492 128.333 16.0924 128.574 16.1836C128.822 16.2747 129.092 16.3203 129.385 16.3203C129.756 16.3203 130.085 16.2487 130.371 16.1055C130.658 15.9622 130.898 15.7344 131.094 15.4219C131.289 15.1029 131.436 14.6895 131.533 14.1816C131.631 13.6738 131.68 13.0651 131.68 12.3555ZM145.664 16.125V18H136.133V16.3887L140.762 11.3398C141.27 10.7669 141.67 10.2721 141.963 9.85547C142.256 9.4388 142.461 9.06445 142.578 8.73242C142.702 8.39388 142.764 8.0651 142.764 7.74609C142.764 7.29688 142.679 6.90299 142.51 6.56445C142.347 6.2194 142.106 5.94922 141.787 5.75391C141.468 5.55208 141.081 5.45117 140.625 5.45117C140.098 5.45117 139.655 5.5651 139.297 5.79297C138.939 6.02083 138.669 6.33659 138.486 6.74023C138.304 7.13737 138.213 7.5931 138.213 8.10742H135.859C135.859 7.2806 136.048 6.52539 136.426 5.8418C136.803 5.15169 137.35 4.60482 138.066 4.20117C138.783 3.79102 139.645 3.58594 140.654 3.58594C141.605 3.58594 142.412 3.74544 143.076 4.06445C143.74 4.38346 144.245 4.83594 144.59 5.42188C144.941 6.00781 145.117 6.70117 145.117 7.50195C145.117 7.94466 145.046 8.38411 144.902 8.82031C144.759 9.25651 144.554 9.69271 144.287 10.1289C144.027 10.5586 143.717 10.9915 143.359 11.4277C143.001 11.8574 142.607 12.2936 142.178 12.7363L139.102 16.125H145.664ZM157.031 16.125V18H147.5V16.3887L152.129 11.3398C152.637 10.7669 153.037 10.2721 153.33 9.85547C153.623 9.4388 153.828 9.06445 153.945 8.73242C154.069 8.39388 154.131 8.0651 154.131 7.74609C154.131 7.29688 154.046 6.90299 153.877 6.56445C153.714 6.2194 153.473 5.94922 153.154 5.75391C152.835 5.55208 152.448 5.45117 151.992 5.45117C151.465 5.45117 151.022 5.5651 150.664 5.79297C150.306 6.02083 150.036 6.33659 149.854 6.74023C149.671 7.13737 149.58 7.5931 149.58 8.10742H147.227C147.227 7.2806 147.415 6.52539 147.793 5.8418C148.171 5.15169 148.717 4.60482 149.434 4.20117C150.15 3.79102 151.012 3.58594 152.021 3.58594C152.972 3.58594 153.779 3.74544 154.443 4.06445C155.107 4.38346 155.612 4.83594 155.957 5.42188C156.309 6.00781 156.484 6.70117 156.484 7.50195C156.484 7.94466 156.413 8.38411 156.27 8.82031C156.126 9.25651 155.921 9.69271 155.654 10.1289C155.394 10.5586 155.085 10.9915 154.727 11.4277C154.368 11.8574 153.975 12.2936 153.545 12.7363L150.469 16.125H157.031ZM174.736 5.67578L170.488 18H167.92L173.271 3.78125H174.912L174.736 5.67578ZM178.291 18L174.033 5.67578L173.848 3.78125H175.498L180.869 18H178.291ZM178.086 12.7266V14.6699H170.352V12.7266H178.086ZM184.746 3V18H182.383V3H184.746ZM189.844 3V18H187.48V3H189.844ZM199.766 9.44531V18H197.412V7.43359H199.658L199.766 9.44531ZM202.998 7.36523L202.979 9.55273C202.835 9.52669 202.679 9.50716 202.51 9.49414C202.347 9.48112 202.184 9.47461 202.021 9.47461C201.618 9.47461 201.263 9.5332 200.957 9.65039C200.651 9.76107 200.394 9.92383 200.186 10.1387C199.984 10.347 199.827 10.6009 199.717 10.9004C199.606 11.1999 199.541 11.5352 199.521 11.9062L198.984 11.9453C198.984 11.2812 199.049 10.666 199.18 10.0996C199.31 9.5332 199.505 9.03516 199.766 8.60547C200.033 8.17578 200.365 7.84049 200.762 7.59961C201.165 7.35872 201.631 7.23828 202.158 7.23828C202.301 7.23828 202.454 7.2513 202.617 7.27734C202.786 7.30339 202.913 7.33268 202.998 7.36523ZM206.992 7.43359V18H204.629V7.43359H206.992ZM204.473 4.66016C204.473 4.30208 204.59 4.00586 204.824 3.77148C205.065 3.5306 205.397 3.41016 205.82 3.41016C206.237 3.41016 206.566 3.5306 206.807 3.77148C207.048 4.00586 207.168 4.30208 207.168 4.66016C207.168 5.01172 207.048 5.30469 206.807 5.53906C206.566 5.77344 206.237 5.89062 205.82 5.89062C205.397 5.89062 205.065 5.77344 204.824 5.53906C204.59 5.30469 204.473 5.01172 204.473 4.66016ZM216.338 7.43359H218.477V17.707C218.477 18.6576 218.275 19.4648 217.871 20.1289C217.467 20.793 216.904 21.2975 216.182 21.6426C215.459 21.9941 214.622 22.1699 213.672 22.1699C213.268 22.1699 212.819 22.1113 212.324 21.9941C211.836 21.877 211.361 21.6882 210.898 21.4277C210.443 21.1738 210.062 20.8385 209.756 20.4219L210.859 19.0352C211.237 19.4844 211.654 19.8132 212.109 20.0215C212.565 20.2298 213.044 20.334 213.545 20.334C214.085 20.334 214.544 20.2331 214.922 20.0312C215.306 19.8359 215.602 19.5462 215.811 19.1621C216.019 18.778 216.123 18.3092 216.123 17.7559V9.82617L216.338 7.43359ZM209.16 12.834V12.6289C209.16 11.8281 209.258 11.099 209.453 10.4414C209.648 9.77734 209.928 9.20768 210.293 8.73242C210.658 8.25065 211.1 7.88281 211.621 7.62891C212.142 7.36849 212.731 7.23828 213.389 7.23828C214.072 7.23828 214.655 7.36198 215.137 7.60938C215.625 7.85677 216.032 8.21159 216.357 8.67383C216.683 9.12956 216.937 9.67643 217.119 10.3145C217.308 10.946 217.448 11.6491 217.539 12.4238V13.0781C217.454 13.8333 217.311 14.5234 217.109 15.1484C216.908 15.7734 216.641 16.3138 216.309 16.7695C215.977 17.2253 215.566 17.5768 215.078 17.8242C214.596 18.0716 214.027 18.1953 213.369 18.1953C212.725 18.1953 212.142 18.0618 211.621 17.7949C211.107 17.528 210.664 17.1536 210.293 16.6719C209.928 16.1901 209.648 15.6237 209.453 14.9727C209.258 14.3151 209.16 13.6022 209.16 12.834ZM211.514 12.6289V12.834C211.514 13.3158 211.559 13.765 211.65 14.1816C211.748 14.5983 211.895 14.9661 212.09 15.2852C212.292 15.5977 212.546 15.8451 212.852 16.0273C213.164 16.2031 213.532 16.291 213.955 16.291C214.508 16.291 214.961 16.1738 215.312 15.9395C215.671 15.7051 215.944 15.3893 216.133 14.9922C216.328 14.5885 216.465 14.1393 216.543 13.6445V11.877C216.504 11.4928 216.423 11.1348 216.299 10.8027C216.182 10.4707 216.022 10.181 215.82 9.93359C215.618 9.67969 215.365 9.48438 215.059 9.34766C214.753 9.20443 214.391 9.13281 213.975 9.13281C213.551 9.13281 213.184 9.22396 212.871 9.40625C212.559 9.58854 212.301 9.83919 212.1 10.1582C211.904 10.4772 211.758 10.8483 211.66 11.2715C211.562 11.6947 211.514 12.1471 211.514 12.6289ZM223.242 3V18H220.898V3H223.242ZM222.832 12.3262L222.07 12.3164C222.077 11.5872 222.178 10.9134 222.373 10.2949C222.575 9.67643 222.855 9.13932 223.213 8.68359C223.577 8.22135 224.014 7.86654 224.521 7.61914C225.029 7.36523 225.592 7.23828 226.211 7.23828C226.732 7.23828 227.201 7.3099 227.617 7.45312C228.04 7.59635 228.405 7.82747 228.711 8.14648C229.017 8.45898 229.248 8.86914 229.404 9.37695C229.567 9.87826 229.648 10.4902 229.648 11.2129V18H227.285V11.1934C227.285 10.6855 227.21 10.2819 227.061 9.98242C226.917 9.68294 226.706 9.4681 226.426 9.33789C226.146 9.20117 225.804 9.13281 225.4 9.13281C224.977 9.13281 224.603 9.21745 224.277 9.38672C223.958 9.55599 223.691 9.78711 223.477 10.0801C223.262 10.373 223.099 10.7116 222.988 11.0957C222.884 11.4798 222.832 11.89 222.832 12.3262ZM236.875 7.43359V9.15234H230.918V7.43359H236.875ZM232.637 4.8457H234.99V15.0801C234.99 15.4056 235.036 15.6562 235.127 15.832C235.225 16.0013 235.358 16.1152 235.527 16.1738C235.697 16.2324 235.895 16.2617 236.123 16.2617C236.286 16.2617 236.442 16.252 236.592 16.2324C236.742 16.2129 236.862 16.1934 236.953 16.1738L236.963 17.9707C236.768 18.0293 236.54 18.0814 236.279 18.127C236.025 18.1725 235.732 18.1953 235.4 18.1953C234.86 18.1953 234.382 18.1009 233.965 17.9121C233.548 17.7168 233.223 17.401 232.988 16.9648C232.754 16.5286 232.637 15.9492 232.637 15.2266V4.8457ZM244.619 15.1387C244.619 14.9043 244.561 14.6927 244.443 14.5039C244.326 14.3086 244.102 14.1328 243.77 13.9766C243.444 13.8203 242.962 13.6771 242.324 13.5469C241.764 13.4232 241.25 13.2767 240.781 13.1074C240.319 12.9316 239.922 12.7201 239.59 12.4727C239.258 12.2253 239.001 11.9323 238.818 11.5938C238.636 11.2552 238.545 10.8646 238.545 10.4219C238.545 9.99219 238.639 9.58529 238.828 9.20117C239.017 8.81706 239.287 8.47852 239.639 8.18555C239.99 7.89258 240.417 7.66146 240.918 7.49219C241.426 7.32292 241.992 7.23828 242.617 7.23828C243.503 7.23828 244.261 7.38802 244.893 7.6875C245.531 7.98047 246.019 8.38086 246.357 8.88867C246.696 9.38997 246.865 9.95638 246.865 10.5879H244.512C244.512 10.3079 244.44 10.0475 244.297 9.80664C244.16 9.55924 243.952 9.36068 243.672 9.21094C243.392 9.05469 243.04 8.97656 242.617 8.97656C242.214 8.97656 241.878 9.04167 241.611 9.17188C241.351 9.29557 241.156 9.45833 241.025 9.66016C240.902 9.86198 240.84 10.0833 240.84 10.3242C240.84 10.5 240.872 10.6595 240.938 10.8027C241.009 10.9395 241.126 11.0664 241.289 11.1836C241.452 11.2943 241.673 11.3984 241.953 11.4961C242.24 11.5938 242.598 11.6882 243.027 11.7793C243.835 11.9486 244.528 12.1667 245.107 12.4336C245.693 12.694 246.143 13.0326 246.455 13.4492C246.768 13.8594 246.924 14.3802 246.924 15.0117C246.924 15.4805 246.823 15.9102 246.621 16.3008C246.426 16.6849 246.139 17.0202 245.762 17.3066C245.384 17.5866 244.932 17.8047 244.404 17.9609C243.883 18.1172 243.298 18.1953 242.646 18.1953C241.689 18.1953 240.879 18.026 240.215 17.6875C239.551 17.3424 239.046 16.903 238.701 16.3691C238.363 15.8288 238.193 15.2689 238.193 14.6895H240.469C240.495 15.1257 240.615 15.474 240.83 15.7344C241.051 15.9883 241.325 16.1738 241.65 16.291C241.982 16.4017 242.324 16.457 242.676 16.457C243.099 16.457 243.454 16.4017 243.74 16.291C244.027 16.1738 244.245 16.0176 244.395 15.8223C244.544 15.6204 244.619 15.3926 244.619 15.1387ZM256.328 9.44531V18H253.975V7.43359H256.221L256.328 9.44531ZM259.561 7.36523L259.541 9.55273C259.398 9.52669 259.242 9.50716 259.072 9.49414C258.91 9.48112 258.747 9.47461 258.584 9.47461C258.18 9.47461 257.826 9.5332 257.52 9.65039C257.214 9.76107 256.956 9.92383 256.748 10.1387C256.546 10.347 256.39 10.6009 256.279 10.9004C256.169 11.1999 256.104 11.5352 256.084 11.9062L255.547 11.9453C255.547 11.2812 255.612 10.666 255.742 10.0996C255.872 9.5332 256.068 9.03516 256.328 8.60547C256.595 8.17578 256.927 7.84049 257.324 7.59961C257.728 7.35872 258.193 7.23828 258.721 7.23828C258.864 7.23828 259.017 7.2513 259.18 7.27734C259.349 7.30339 259.476 7.33268 259.561 7.36523ZM265.498 18.1953C264.717 18.1953 264.01 18.0684 263.379 17.8145C262.754 17.554 262.22 17.1927 261.777 16.7305C261.341 16.2682 261.006 15.7246 260.771 15.0996C260.537 14.4746 260.42 13.8008 260.42 13.0781V12.6875C260.42 11.8607 260.54 11.112 260.781 10.4414C261.022 9.77083 261.357 9.19792 261.787 8.72266C262.217 8.24089 262.725 7.87305 263.311 7.61914C263.896 7.36523 264.531 7.23828 265.215 7.23828C265.97 7.23828 266.631 7.36523 267.197 7.61914C267.764 7.87305 268.232 8.23112 268.604 8.69336C268.981 9.14909 269.261 9.69271 269.443 10.3242C269.632 10.9557 269.727 11.6523 269.727 12.4141V13.4199H261.562V11.7305H267.402V11.5449C267.389 11.1217 267.305 10.7246 267.148 10.3535C266.999 9.98242 266.768 9.68294 266.455 9.45508C266.143 9.22721 265.726 9.11328 265.205 9.11328C264.814 9.11328 264.466 9.19792 264.16 9.36719C263.861 9.52995 263.61 9.76758 263.408 10.0801C263.206 10.3926 263.05 10.7702 262.939 11.2129C262.835 11.6491 262.783 12.1406 262.783 12.6875V13.0781C262.783 13.5404 262.845 13.9701 262.969 14.3672C263.099 14.7578 263.288 15.0996 263.535 15.3926C263.783 15.6855 264.082 15.9167 264.434 16.0859C264.785 16.2487 265.186 16.3301 265.635 16.3301C266.201 16.3301 266.706 16.2161 267.148 15.9883C267.591 15.7604 267.975 15.4382 268.301 15.0215L269.541 16.2227C269.313 16.5547 269.017 16.8737 268.652 17.1797C268.288 17.4792 267.842 17.7233 267.314 17.9121C266.794 18.1009 266.188 18.1953 265.498 18.1953ZM277.49 15.1387C277.49 14.9043 277.432 14.6927 277.314 14.5039C277.197 14.3086 276.973 14.1328 276.641 13.9766C276.315 13.8203 275.833 13.6771 275.195 13.5469C274.635 13.4232 274.121 13.2767 273.652 13.1074C273.19 12.9316 272.793 12.7201 272.461 12.4727C272.129 12.2253 271.872 11.9323 271.689 11.5938C271.507 11.2552 271.416 10.8646 271.416 10.4219C271.416 9.99219 271.51 9.58529 271.699 9.20117C271.888 8.81706 272.158 8.47852 272.51 8.18555C272.861 7.89258 273.288 7.66146 273.789 7.49219C274.297 7.32292 274.863 7.23828 275.488 7.23828C276.374 7.23828 277.132 7.38802 277.764 7.6875C278.402 7.98047 278.89 8.38086 279.229 8.88867C279.567 9.38997 279.736 9.95638 279.736 10.5879H277.383C277.383 10.3079 277.311 10.0475 277.168 9.80664C277.031 9.55924 276.823 9.36068 276.543 9.21094C276.263 9.05469 275.911 8.97656 275.488 8.97656C275.085 8.97656 274.749 9.04167 274.482 9.17188C274.222 9.29557 274.027 9.45833 273.896 9.66016C273.773 9.86198 273.711 10.0833 273.711 10.3242C273.711 10.5 273.743 10.6595 273.809 10.8027C273.88 10.9395 273.997 11.0664 274.16 11.1836C274.323 11.2943 274.544 11.3984 274.824 11.4961C275.111 11.5938 275.469 11.6882 275.898 11.7793C276.706 11.9486 277.399 12.1667 277.979 12.4336C278.564 12.694 279.014 13.0326 279.326 13.4492C279.639 13.8594 279.795 14.3802 279.795 15.0117C279.795 15.4805 279.694 15.9102 279.492 16.3008C279.297 16.6849 279.01 17.0202 278.633 17.3066C278.255 17.5866 277.803 17.8047 277.275 17.9609C276.755 18.1172 276.169 18.1953 275.518 18.1953C274.561 18.1953 273.75 18.026 273.086 17.6875C272.422 17.3424 271.917 16.903 271.572 16.3691C271.234 15.8288 271.064 15.2689 271.064 14.6895H273.34C273.366 15.1257 273.486 15.474 273.701 15.7344C273.923 15.9883 274.196 16.1738 274.521 16.291C274.854 16.4017 275.195 16.457 275.547 16.457C275.97 16.457 276.325 16.4017 276.611 16.291C276.898 16.1738 277.116 16.0176 277.266 15.8223C277.415 15.6204 277.49 15.3926 277.49 15.1387ZM286.514 18.1953C285.732 18.1953 285.026 18.0684 284.395 17.8145C283.77 17.554 283.236 17.1927 282.793 16.7305C282.357 16.2682 282.021 15.7246 281.787 15.0996C281.553 14.4746 281.436 13.8008 281.436 13.0781V12.6875C281.436 11.8607 281.556 11.112 281.797 10.4414C282.038 9.77083 282.373 9.19792 282.803 8.72266C283.232 8.24089 283.74 7.87305 284.326 7.61914C284.912 7.36523 285.547 7.23828 286.23 7.23828C286.986 7.23828 287.646 7.36523 288.213 7.61914C288.779 7.87305 289.248 8.23112 289.619 8.69336C289.997 9.14909 290.277 9.69271 290.459 10.3242C290.648 10.9557 290.742 11.6523 290.742 12.4141V13.4199H282.578V11.7305H288.418V11.5449C288.405 11.1217 288.32 10.7246 288.164 10.3535C288.014 9.98242 287.783 9.68294 287.471 9.45508C287.158 9.22721 286.742 9.11328 286.221 9.11328C285.83 9.11328 285.482 9.19792 285.176 9.36719C284.876 9.52995 284.626 9.76758 284.424 10.0801C284.222 10.3926 284.066 10.7702 283.955 11.2129C283.851 11.6491 283.799 12.1406 283.799 12.6875V13.0781C283.799 13.5404 283.861 13.9701 283.984 14.3672C284.115 14.7578 284.303 15.0996 284.551 15.3926C284.798 15.6855 285.098 15.9167 285.449 16.0859C285.801 16.2487 286.201 16.3301 286.65 16.3301C287.217 16.3301 287.721 16.2161 288.164 15.9883C288.607 15.7604 288.991 15.4382 289.316 15.0215L290.557 16.2227C290.329 16.5547 290.033 16.8737 289.668 17.1797C289.303 17.4792 288.857 17.7233 288.33 17.9121C287.809 18.1009 287.204 18.1953 286.514 18.1953ZM294.941 9.44531V18H292.588V7.43359H294.834L294.941 9.44531ZM298.174 7.36523L298.154 9.55273C298.011 9.52669 297.855 9.50716 297.686 9.49414C297.523 9.48112 297.36 9.47461 297.197 9.47461C296.794 9.47461 296.439 9.5332 296.133 9.65039C295.827 9.76107 295.57 9.92383 295.361 10.1387C295.16 10.347 295.003 10.6009 294.893 10.9004C294.782 11.1999 294.717 11.5352 294.697 11.9062L294.16 11.9453C294.16 11.2812 294.225 10.666 294.355 10.0996C294.486 9.5332 294.681 9.03516 294.941 8.60547C295.208 8.17578 295.54 7.84049 295.938 7.59961C296.341 7.35872 296.807 7.23828 297.334 7.23828C297.477 7.23828 297.63 7.2513 297.793 7.27734C297.962 7.30339 298.089 7.33268 298.174 7.36523ZM303.262 16.1348L305.85 7.43359H308.291L304.619 18H303.096L303.262 16.1348ZM301.279 7.43359L303.916 16.1738L304.043 18H302.52L298.828 7.43359H301.279ZM314.268 18.1953C313.486 18.1953 312.78 18.0684 312.148 17.8145C311.523 17.554 310.99 17.1927 310.547 16.7305C310.111 16.2682 309.775 15.7246 309.541 15.0996C309.307 14.4746 309.189 13.8008 309.189 13.0781V12.6875C309.189 11.8607 309.31 11.112 309.551 10.4414C309.792 9.77083 310.127 9.19792 310.557 8.72266C310.986 8.24089 311.494 7.87305 312.08 7.61914C312.666 7.36523 313.301 7.23828 313.984 7.23828C314.74 7.23828 315.4 7.36523 315.967 7.61914C316.533 7.87305 317.002 8.23112 317.373 8.69336C317.751 9.14909 318.031 9.69271 318.213 10.3242C318.402 10.9557 318.496 11.6523 318.496 12.4141V13.4199H310.332V11.7305H316.172V11.5449C316.159 11.1217 316.074 10.7246 315.918 10.3535C315.768 9.98242 315.537 9.68294 315.225 9.45508C314.912 9.22721 314.495 9.11328 313.975 9.11328C313.584 9.11328 313.236 9.19792 312.93 9.36719C312.63 9.52995 312.38 9.76758 312.178 10.0801C311.976 10.3926 311.82 10.7702 311.709 11.2129C311.605 11.6491 311.553 12.1406 311.553 12.6875V13.0781C311.553 13.5404 311.615 13.9701 311.738 14.3672C311.868 14.7578 312.057 15.0996 312.305 15.3926C312.552 15.6855 312.852 15.9167 313.203 16.0859C313.555 16.2487 313.955 16.3301 314.404 16.3301C314.971 16.3301 315.475 16.2161 315.918 15.9883C316.361 15.7604 316.745 15.4382 317.07 15.0215L318.311 16.2227C318.083 16.5547 317.786 16.8737 317.422 17.1797C317.057 17.4792 316.611 17.7233 316.084 17.9121C315.563 18.1009 314.958 18.1953 314.268 18.1953ZM326.777 15.8125V3H329.141V18H327.002L326.777 15.8125ZM319.902 12.834V12.6289C319.902 11.8281 319.997 11.099 320.186 10.4414C320.374 9.77734 320.648 9.20768 321.006 8.73242C321.364 8.25065 321.8 7.88281 322.314 7.62891C322.829 7.36849 323.408 7.23828 324.053 7.23828C324.691 7.23828 325.251 7.36198 325.732 7.60938C326.214 7.85677 326.624 8.21159 326.963 8.67383C327.301 9.12956 327.572 9.67643 327.773 10.3145C327.975 10.946 328.118 11.6491 328.203 12.4238V13.0781C328.118 13.8333 327.975 14.5234 327.773 15.1484C327.572 15.7734 327.301 16.3138 326.963 16.7695C326.624 17.2253 326.211 17.5768 325.723 17.8242C325.241 18.0716 324.678 18.1953 324.033 18.1953C323.395 18.1953 322.819 18.0618 322.305 17.7949C321.797 17.528 321.364 17.1536 321.006 16.6719C320.648 16.1901 320.374 15.6237 320.186 14.9727C319.997 14.3151 319.902 13.6022 319.902 12.834ZM322.256 12.6289V12.834C322.256 13.3158 322.298 13.765 322.383 14.1816C322.474 14.5983 322.614 14.9661 322.803 15.2852C322.992 15.5977 323.236 15.8451 323.535 16.0273C323.841 16.2031 324.206 16.291 324.629 16.291C325.163 16.291 325.602 16.1738 325.947 15.9395C326.292 15.7051 326.562 15.3893 326.758 14.9922C326.96 14.5885 327.096 14.1393 327.168 13.6445V11.877C327.129 11.4928 327.048 11.1348 326.924 10.8027C326.807 10.4707 326.647 10.181 326.445 9.93359C326.243 9.67969 325.993 9.48438 325.693 9.34766C325.4 9.20443 325.052 9.13281 324.648 9.13281C324.219 9.13281 323.854 9.22396 323.555 9.40625C323.255 9.58854 323.008 9.83919 322.812 10.1582C322.624 10.4772 322.484 10.8483 322.393 11.2715C322.301 11.6947 322.256 12.1471 322.256 12.6289Z" fill="#CBD5E1"/>
</svg>
